<svg xmlns="http://www.w3.org/2000/svg" viewBox="0 0 512 512" role="img" aria-label="Chiikawa tails coin face">
  <defs>
    <radialGradient id="ckTBg" cx="36%" cy="28%" r="76%">
      <stop offset="0" stop-color="#e8f5e9"/>
      <stop offset="1" stop-color="#c8e6c9"/>
    </radialGradient>
    <linearGradient id="ckTShine" x1="100" x2="400" y1="80" y2="420" gradientUnits="userSpaceOnUse">
      <stop offset="0" stop-color="#fff" stop-opacity=".4"/>
      <stop offset=".3" stop-color="#fff" stop-opacity=".06"/>
      <stop offset="1" stop-color="#000" stop-opacity=".08"/>
    </linearGradient>
  </defs>
  <rect width="512" height="512" fill="#c8e6c9"/>
  <circle cx="256" cy="256" r="232" fill="url(#ckTBg)"/>
  <circle cx="256" cy="256" r="232" fill="url(#ckTShine)"/>
  <!-- clover/star shape -->
  <g transform="translate(256 240)" fill="#81c784" stroke="#4a7c4e" stroke-width="4">
    <circle cx="0" cy="-38" r="36"/>
    <circle cx="-36" cy="8" r="36"/>
    <circle cx="36" cy="8" r="36"/>
    <circle cx="0" cy="0" r="28" fill="#a5d6a7" stroke="none"/>
    <rect x="-5" y="20" width="10" height="48" rx="5" fill="#6d9e6f" stroke="none"/>
  </g>
  <!-- sparkle accents -->
  <g fill="#fff" opacity=".7">
    <path d="M160 160l4-12 4 12 12 4-12 4-4 12-4-12-12-4z"/>
    <path d="M350 170l3-9 3 9 9 3-9 3-3 9-3-9-9-3z"/>
    <path d="M140 330l3-9 3 9 9 3-9 3-3 9-3-9-9-3z"/>
    <path d="M370 310l4-12 4 12 12 4-12 4-4 12-4-12-12-4z"/>
  </g>
  <!-- coin rim -->
  <circle cx="256" cy="256" r="232" fill="none" stroke="#7cb47e" stroke-width="22"/>
  <circle cx="256" cy="256" r="226" fill="none" stroke="#a8d8a8" stroke-width="5" opacity=".6"/>
  <!-- text -->
  <text x="256" y="410" text-anchor="middle" fill="#5a8a5c" font-family="'Rounded Mplus 1c',Arial,sans-serif" font-size="36" font-weight="700" opacity=".7">TAILS</text>
</svg>
